<?xml version="1.0" encoding="UTF-8"?>
<svg id="_图层_2" data-name="图层 2" xmlns="http://www.w3.org/2000/svg" viewBox="0 0 153.6 153.6">
  <defs>
    <style>
      .cls-1 {
        fill: #dabcfc;
      }
    </style>
  </defs>
  <g id="_图层_1-2" data-name="图层 1">
    <path class="cls-1" d="M77.21,20.66c22.8,0,45.6,0,68.4,0,.45,0,.91-.05,1.35,.02,.91,.13,1.21,.61,.69,1.45-1.46,2.36-2.97,4.71-4.38,7.1-1.62,2.75-3.12,5.58-4.74,8.33-1.53,2.6-3.19,5.13-4.74,7.72-1.21,2.03-2.31,4.13-3.52,6.16-2.24,3.76-4.55,7.48-6.78,11.24-2.48,4.17-4.88,8.37-7.36,12.54-1.62,2.73-3.34,5.41-4.99,8.13-2.72,4.5-5.42,9.02-8.13,13.52-2.15,3.58-4.34,7.13-6.47,10.72-1.58,2.66-3.07,5.36-4.63,8.03-2.41,4.12-4.81,8.23-7.26,12.33-2.08,3.48-4.19,6.95-6.36,10.39-.78,1.24-1.28,1.25-2.03,.06-1.6-2.52-3.13-5.09-4.66-7.66-2.59-4.33-5.17-8.66-7.75-13.01-2.11-3.56-4.16-7.14-6.3-10.68-2.13-3.53-4.37-6.98-6.49-10.52-1.71-2.86-3.28-5.81-4.97-8.68-1.24-2.12-2.58-4.17-3.86-6.27-1.36-2.23-2.69-4.48-4.03-6.72-1.84-3.06-3.68-6.11-5.51-9.17-1.23-2.05-2.47-4.11-3.69-6.17-2.23-3.76-4.44-7.53-6.66-11.3-2.16-3.66-4.31-7.33-6.49-10.98-1.26-2.11-2.59-4.17-3.86-6.26-1.38-2.28-2.73-4.57-4.09-6.86-.37-.62-.8-1.22-1.1-1.87-.43-.95-.16-1.56,.98-1.58,.4,0,.8,0,1.2,0,22.75,0,45.5,0,68.25,0Z"/>
  </g>
</svg>